G04*
G04 #@! TF.GenerationSoftware,Altium Limited,Altium Designer,22.10.1 (41)*
G04*
G04 Layer_Physical_Order=2*
G04 Layer_Color=16711680*
%FSLAX25Y25*%
%MOIN*%
G70*
G04*
G04 #@! TF.SameCoordinates,9E0960FC-3ED2-4FAA-BC68-AFD81F8D810D*
G04*
G04*
G04 #@! TF.FilePolarity,Positive*
G04*
G01*
G75*
%ADD42C,0.01968*%
%ADD47C,0.06000*%
%ADD48R,0.06000X0.06000*%
G04:AMPARAMS|DCode=49|XSize=78.74mil|YSize=118.11mil|CornerRadius=19.68mil|HoleSize=0mil|Usage=FLASHONLY|Rotation=90.000|XOffset=0mil|YOffset=0mil|HoleType=Round|Shape=RoundedRectangle|*
%AMROUNDEDRECTD49*
21,1,0.07874,0.07874,0,0,90.0*
21,1,0.03937,0.11811,0,0,90.0*
1,1,0.03937,0.03937,0.01968*
1,1,0.03937,0.03937,-0.01968*
1,1,0.03937,-0.03937,-0.01968*
1,1,0.03937,-0.03937,0.01968*
%
%ADD49ROUNDEDRECTD49*%
G04:AMPARAMS|DCode=50|XSize=78.74mil|YSize=118.11mil|CornerRadius=19.68mil|HoleSize=0mil|Usage=FLASHONLY|Rotation=0.000|XOffset=0mil|YOffset=0mil|HoleType=Round|Shape=RoundedRectangle|*
%AMROUNDEDRECTD50*
21,1,0.07874,0.07874,0,0,0.0*
21,1,0.03937,0.11811,0,0,0.0*
1,1,0.03937,0.01968,-0.03937*
1,1,0.03937,-0.01968,-0.03937*
1,1,0.03937,-0.01968,0.03937*
1,1,0.03937,0.01968,0.03937*
%
%ADD50ROUNDEDRECTD50*%
%ADD51C,0.02756*%
%ADD52C,0.05118*%
G36*
X259842Y76772D02*
X139764D01*
Y62992D01*
X114173D01*
Y114173D01*
X259842D01*
Y76772D01*
D02*
G37*
G36*
X110236Y59055D02*
X142717Y59055D01*
X142717Y73819D01*
X259842Y73819D01*
Y3937D01*
X3937D01*
Y114173D01*
X110236D01*
X110236Y59055D01*
D02*
G37*
%LPC*%
G36*
X250787Y105789D02*
X247350D01*
Y101327D01*
X253782D01*
Y102795D01*
X253679Y103570D01*
X253380Y104292D01*
X252905Y104912D01*
X252285Y105388D01*
X251562Y105687D01*
X250787Y105789D01*
D02*
G37*
G36*
X246350D02*
X242913D01*
X242138Y105687D01*
X241416Y105388D01*
X240796Y104912D01*
X240320Y104292D01*
X240021Y103570D01*
X239919Y102795D01*
Y101327D01*
X246350D01*
Y105789D01*
D02*
G37*
G36*
X203256Y100792D02*
Y98925D01*
X205123D01*
X204772Y99772D01*
X204103Y100441D01*
X203256Y100792D01*
D02*
G37*
G36*
X202256D02*
X201409Y100441D01*
X200740Y99772D01*
X200389Y98925D01*
X202256D01*
Y100792D01*
D02*
G37*
G36*
X205123Y97925D02*
X203256D01*
Y96058D01*
X204103Y96409D01*
X204772Y97078D01*
X205123Y97925D01*
D02*
G37*
G36*
X202256D02*
X200389D01*
X200740Y97078D01*
X201409Y96409D01*
X202256Y96058D01*
Y97925D01*
D02*
G37*
G36*
X253782Y100327D02*
X247350D01*
Y95864D01*
X250787D01*
X251562Y95966D01*
X252285Y96265D01*
X252905Y96741D01*
X253380Y97361D01*
X253679Y98083D01*
X253782Y98858D01*
Y100327D01*
D02*
G37*
G36*
X246350D02*
X239919D01*
Y98858D01*
X240021Y98083D01*
X240320Y97361D01*
X240796Y96741D01*
X241416Y96265D01*
X242138Y95966D01*
X242913Y95864D01*
X246350D01*
Y100327D01*
D02*
G37*
G36*
X250787Y90575D02*
X242913D01*
X242194Y90480D01*
X241524Y90202D01*
X240948Y89761D01*
X240506Y89185D01*
X240228Y88515D01*
X240134Y87795D01*
Y83858D01*
X240228Y83139D01*
X240506Y82468D01*
X240948Y81893D01*
X241524Y81451D01*
X242194Y81173D01*
X242913Y81079D01*
X250787D01*
X251507Y81173D01*
X252177Y81451D01*
X252753Y81893D01*
X253195Y82468D01*
X253472Y83139D01*
X253567Y83858D01*
Y87795D01*
X253472Y88515D01*
X253195Y89185D01*
X252753Y89761D01*
X252177Y90202D01*
X251507Y90480D01*
X250787Y90575D01*
D02*
G37*
G36*
X134358Y73432D02*
Y70382D01*
X137409D01*
X137175Y71256D01*
X136706Y72067D01*
X136044Y72730D01*
X135232Y73198D01*
X134358Y73432D01*
D02*
G37*
G36*
X133358D02*
X132484Y73198D01*
X131673Y72730D01*
X131010Y72067D01*
X130542Y71256D01*
X130308Y70382D01*
X133358D01*
Y73432D01*
D02*
G37*
G36*
X137409Y69382D02*
X134358D01*
Y66331D01*
X135232Y66565D01*
X136044Y67034D01*
X136706Y67697D01*
X137175Y68508D01*
X137409Y69382D01*
D02*
G37*
G36*
X133358D02*
X130308D01*
X130542Y68508D01*
X131010Y67697D01*
X131673Y67034D01*
X132484Y66565D01*
X133358Y66331D01*
Y69382D01*
D02*
G37*
G36*
X58571Y100992D02*
Y97941D01*
X61621D01*
X61387Y98815D01*
X60919Y99626D01*
X60256Y100289D01*
X59445Y100757D01*
X58571Y100992D01*
D02*
G37*
G36*
X57571D02*
X56697Y100757D01*
X55886Y100289D01*
X55223Y99626D01*
X54754Y98815D01*
X54520Y97941D01*
X57571D01*
Y100992D01*
D02*
G37*
G36*
X61621Y96941D02*
X58571D01*
Y93890D01*
X59445Y94124D01*
X60256Y94593D01*
X60919Y95256D01*
X61387Y96067D01*
X61621Y96941D01*
D02*
G37*
G36*
X57571D02*
X54520D01*
X54754Y96067D01*
X55223Y95256D01*
X55886Y94593D01*
X56697Y94124D01*
X57571Y93890D01*
Y96941D01*
D02*
G37*
G36*
X69398Y91934D02*
Y90067D01*
X71264D01*
X70914Y90914D01*
X70245Y91583D01*
X69398Y91934D01*
D02*
G37*
G36*
X68398D02*
X67551Y91583D01*
X66882Y90914D01*
X66531Y90067D01*
X68398D01*
Y91934D01*
D02*
G37*
G36*
X71264Y89067D02*
X69398D01*
Y87200D01*
X70245Y87551D01*
X70914Y88220D01*
X71264Y89067D01*
D02*
G37*
G36*
X68398D02*
X66531D01*
X66882Y88220D01*
X67551Y87551D01*
X68398Y87200D01*
Y89067D01*
D02*
G37*
G36*
X81193Y82091D02*
X80346Y81740D01*
X79677Y81071D01*
X79503Y80651D01*
X78962D01*
X78788Y81071D01*
X78119Y81740D01*
X77272Y82091D01*
Y79724D01*
X76772D01*
Y79224D01*
X74405D01*
X74756Y78377D01*
X75425Y77709D01*
X76299Y77346D01*
X76820D01*
X76944Y77176D01*
X77080Y76846D01*
X76767Y76091D01*
X81501D01*
X81181Y76863D01*
X81193Y76890D01*
Y79724D01*
Y82091D01*
D02*
G37*
G36*
X82193D02*
Y80224D01*
X84060D01*
X83709Y81071D01*
X83040Y81740D01*
X82193Y82091D01*
D02*
G37*
G36*
X76272D02*
X75425Y81740D01*
X74756Y81071D01*
X74405Y80224D01*
X76272D01*
Y82091D01*
D02*
G37*
G36*
X28591Y85205D02*
X21016D01*
Y77630D01*
X28591D01*
Y85205D01*
D02*
G37*
G36*
X84060Y79224D02*
X82193D01*
Y77358D01*
X83040Y77709D01*
X83709Y78377D01*
X84060Y79224D01*
D02*
G37*
G36*
Y71350D02*
X82193D01*
Y69484D01*
X83040Y69835D01*
X83709Y70503D01*
X84060Y71350D01*
D02*
G37*
G36*
X81501Y75090D02*
X76767D01*
X76917Y74728D01*
X76583Y74228D01*
X76299D01*
X75425Y73866D01*
X74756Y73197D01*
X74405Y72350D01*
X76772D01*
Y71850D01*
X77272D01*
Y69484D01*
X78119Y69835D01*
X78788Y70503D01*
X78962Y70924D01*
X79503D01*
X79677Y70503D01*
X80346Y69835D01*
X81193Y69484D01*
Y71850D01*
X81693D01*
Y72350D01*
X84060D01*
X83709Y73197D01*
X83040Y73866D01*
X82166Y74228D01*
X81685D01*
X81351Y74728D01*
X81501Y75090D01*
D02*
G37*
G36*
X76272Y71350D02*
X74405D01*
X74756Y70503D01*
X75425Y69835D01*
X76272Y69484D01*
Y71350D01*
D02*
G37*
G36*
X104831Y69296D02*
Y67429D01*
X106697D01*
X106347Y68276D01*
X105678Y68945D01*
X104831Y69296D01*
D02*
G37*
G36*
X103831D02*
X102984Y68945D01*
X102315Y68276D01*
X101964Y67429D01*
X103831D01*
Y69296D01*
D02*
G37*
G36*
X106697Y66429D02*
X104831D01*
Y64562D01*
X105678Y64913D01*
X106347Y65582D01*
X106697Y66429D01*
D02*
G37*
G36*
X103831D02*
X101964D01*
X102315Y65582D01*
X102984Y64913D01*
X103831Y64562D01*
Y66429D01*
D02*
G37*
G36*
X250787Y71697D02*
X242913D01*
X242194Y71602D01*
X241524Y71325D01*
X240948Y70883D01*
X240506Y70307D01*
X240228Y69637D01*
X240134Y68917D01*
Y64980D01*
X240228Y64261D01*
X240506Y63591D01*
X240948Y63015D01*
X241524Y62573D01*
X242194Y62295D01*
X242913Y62201D01*
X250787D01*
X251507Y62295D01*
X252177Y62573D01*
X252753Y63015D01*
X253195Y63591D01*
X253472Y64261D01*
X253567Y64980D01*
Y68917D01*
X253472Y69637D01*
X253195Y70307D01*
X252753Y70883D01*
X252177Y71325D01*
X251507Y71602D01*
X250787Y71697D01*
D02*
G37*
G36*
X66966Y62795D02*
X66105D01*
X65309Y62466D01*
X64886Y62043D01*
X49681D01*
X49652Y62072D01*
X48856Y62402D01*
X47995D01*
X47199Y62072D01*
X46589Y61463D01*
X46260Y60667D01*
Y59806D01*
X46589Y59010D01*
X47199Y58400D01*
X47995Y58071D01*
X48856D01*
X49652Y58400D01*
X49681Y58430D01*
X65929D01*
X66104Y58465D01*
X66105Y58465D01*
X66966D01*
X67762Y58794D01*
X68371Y59403D01*
X68701Y60199D01*
Y61061D01*
X68371Y61857D01*
X67762Y62466D01*
X66966Y62795D01*
D02*
G37*
G36*
X25330Y65417D02*
X25303D01*
Y61917D01*
X28803D01*
Y61944D01*
X28531Y62961D01*
X28004Y63873D01*
X27259Y64618D01*
X26347Y65145D01*
X25330Y65417D01*
D02*
G37*
G36*
X24303D02*
X24277D01*
X23259Y65145D01*
X22347Y64618D01*
X21602Y63873D01*
X21076Y62961D01*
X20803Y61944D01*
Y61917D01*
X24303D01*
Y65417D01*
D02*
G37*
G36*
X28803Y60917D02*
X25303D01*
Y57417D01*
X25330D01*
X26347Y57690D01*
X27259Y58217D01*
X28004Y58961D01*
X28531Y59873D01*
X28803Y60891D01*
Y60917D01*
D02*
G37*
G36*
X24303D02*
X20803D01*
Y60891D01*
X21076Y59873D01*
X21602Y58961D01*
X22347Y58217D01*
X23259Y57690D01*
X24277Y57417D01*
X24303D01*
Y60917D01*
D02*
G37*
G36*
X181996Y59060D02*
Y57193D01*
X183863D01*
X183512Y58040D01*
X182843Y58709D01*
X181996Y59060D01*
D02*
G37*
G36*
X180996D02*
X180149Y58709D01*
X179480Y58040D01*
X179129Y57193D01*
X180996D01*
Y59060D01*
D02*
G37*
G36*
X73335Y57485D02*
Y55618D01*
X75201D01*
X74851Y56465D01*
X74182Y57134D01*
X73335Y57485D01*
D02*
G37*
G36*
X72335D02*
X71488Y57134D01*
X70819Y56465D01*
X70468Y55618D01*
X72335D01*
Y57485D01*
D02*
G37*
G36*
X51681Y56501D02*
Y54634D01*
X53548D01*
X53197Y55481D01*
X52528Y56150D01*
X51681Y56501D01*
D02*
G37*
G36*
X50681D02*
X49834Y56150D01*
X49165Y55481D01*
X48814Y54634D01*
X50681D01*
Y56501D01*
D02*
G37*
G36*
X183863Y56193D02*
X181996D01*
Y54326D01*
X182843Y54677D01*
X183512Y55346D01*
X183863Y56193D01*
D02*
G37*
G36*
X180996D02*
X179129D01*
X179480Y55346D01*
X180149Y54677D01*
X180996Y54326D01*
Y56193D01*
D02*
G37*
G36*
X75201Y54618D02*
X73335D01*
Y52751D01*
X74182Y53102D01*
X74851Y53771D01*
X75201Y54618D01*
D02*
G37*
G36*
X72335D02*
X70468D01*
X70819Y53771D01*
X71488Y53102D01*
X72335Y52751D01*
Y54618D01*
D02*
G37*
G36*
X250787Y56911D02*
X247350D01*
Y52449D01*
X253782D01*
Y53917D01*
X253679Y54692D01*
X253380Y55414D01*
X252905Y56034D01*
X252285Y56510D01*
X251562Y56809D01*
X250787Y56911D01*
D02*
G37*
G36*
X246350D02*
X242913D01*
X242138Y56809D01*
X241416Y56510D01*
X240796Y56034D01*
X240320Y55414D01*
X240021Y54692D01*
X239919Y53917D01*
Y52449D01*
X246350D01*
Y56911D01*
D02*
G37*
G36*
X53548Y53634D02*
X51681D01*
Y51767D01*
X52528Y52118D01*
X53197Y52787D01*
X53548Y53634D01*
D02*
G37*
G36*
X50681D02*
X48814D01*
X49165Y52787D01*
X49834Y52118D01*
X50681Y51767D01*
Y53634D01*
D02*
G37*
G36*
X253782Y51449D02*
X247350D01*
Y46986D01*
X250787D01*
X251562Y47088D01*
X252285Y47387D01*
X252905Y47863D01*
X253380Y48483D01*
X253679Y49205D01*
X253782Y49980D01*
Y51449D01*
D02*
G37*
G36*
X246350D02*
X239919D01*
Y49980D01*
X240021Y49205D01*
X240320Y48483D01*
X240796Y47863D01*
X241416Y47387D01*
X242138Y47088D01*
X242913Y46986D01*
X246350D01*
Y51449D01*
D02*
G37*
G36*
X250787Y38232D02*
X242913D01*
X242194Y38138D01*
X241524Y37860D01*
X240948Y37418D01*
X240506Y36843D01*
X240228Y36172D01*
X240134Y35453D01*
Y31516D01*
X240228Y30796D01*
X240506Y30126D01*
X240948Y29550D01*
X241524Y29109D01*
X242194Y28831D01*
X242913Y28736D01*
X250787D01*
X251507Y28831D01*
X252177Y29109D01*
X252753Y29550D01*
X253195Y30126D01*
X253472Y30796D01*
X253567Y31516D01*
Y35453D01*
X253472Y36172D01*
X253195Y36843D01*
X252753Y37418D01*
X252177Y37860D01*
X251507Y38138D01*
X250787Y38232D01*
D02*
G37*
G36*
X215067Y25005D02*
Y23138D01*
X216934D01*
X216583Y23985D01*
X215914Y24654D01*
X215067Y25005D01*
D02*
G37*
G36*
X214067D02*
X213220Y24654D01*
X212551Y23985D01*
X212200Y23138D01*
X214067D01*
Y25005D01*
D02*
G37*
G36*
X216934Y22138D02*
X215067D01*
Y20271D01*
X215914Y20622D01*
X216583Y21291D01*
X216934Y22138D01*
D02*
G37*
G36*
X214067D02*
X212200D01*
X212551Y21291D01*
X213220Y20622D01*
X214067Y20271D01*
Y22138D01*
D02*
G37*
G36*
X250787Y23447D02*
X247350D01*
Y18984D01*
X253782D01*
Y20453D01*
X253679Y21228D01*
X253380Y21950D01*
X252905Y22570D01*
X252285Y23046D01*
X251562Y23345D01*
X250787Y23447D01*
D02*
G37*
G36*
X246350D02*
X242913D01*
X242138Y23345D01*
X241416Y23046D01*
X240796Y22570D01*
X240320Y21950D01*
X240021Y21228D01*
X239919Y20453D01*
Y18984D01*
X246350D01*
Y23447D01*
D02*
G37*
G36*
X49823Y23179D02*
X48354D01*
Y16748D01*
X52817D01*
Y20185D01*
X52715Y20960D01*
X52416Y21682D01*
X51940Y22302D01*
X51320Y22778D01*
X50598Y23077D01*
X49823Y23179D01*
D02*
G37*
G36*
X47354D02*
X45886D01*
X45111Y23077D01*
X44389Y22778D01*
X43769Y22302D01*
X43293Y21682D01*
X42994Y20960D01*
X42892Y20185D01*
Y16748D01*
X47354D01*
Y23179D01*
D02*
G37*
G36*
X253782Y17984D02*
X247350D01*
Y13522D01*
X250787D01*
X251562Y13624D01*
X252285Y13923D01*
X252905Y14399D01*
X253380Y15019D01*
X253679Y15741D01*
X253782Y16516D01*
Y17984D01*
D02*
G37*
G36*
X246350D02*
X239919D01*
Y16516D01*
X240021Y15741D01*
X240320Y15019D01*
X240796Y14399D01*
X241416Y13923D01*
X242138Y13624D01*
X242913Y13522D01*
X246350D01*
Y17984D01*
D02*
G37*
G36*
X34823Y22965D02*
X30886D01*
X30166Y22870D01*
X29496Y22592D01*
X28920Y22151D01*
X28479Y21575D01*
X28201Y20904D01*
X28106Y20185D01*
Y12311D01*
X28201Y11592D01*
X28479Y10921D01*
X28920Y10345D01*
X29496Y9904D01*
X30166Y9626D01*
X30886Y9531D01*
X34823D01*
X35542Y9626D01*
X36213Y9904D01*
X36788Y10345D01*
X37230Y10921D01*
X37508Y11592D01*
X37602Y12311D01*
Y20185D01*
X37508Y20904D01*
X37230Y21575D01*
X36788Y22151D01*
X36213Y22592D01*
X35542Y22870D01*
X34823Y22965D01*
D02*
G37*
G36*
X52817Y15748D02*
X48354D01*
Y9317D01*
X49823D01*
X50598Y9419D01*
X51320Y9718D01*
X51940Y10194D01*
X52416Y10814D01*
X52715Y11536D01*
X52817Y12311D01*
Y15748D01*
D02*
G37*
G36*
X47354D02*
X42892D01*
Y12311D01*
X42994Y11536D01*
X43293Y10814D01*
X43769Y10194D01*
X44389Y9718D01*
X45111Y9419D01*
X45886Y9317D01*
X47354D01*
Y15748D01*
D02*
G37*
%LPD*%
D42*
X65929Y60236D02*
X66322Y60630D01*
X48425Y60236D02*
X65929D01*
X66322Y60630D02*
X66535D01*
D47*
X24803Y61417D02*
D03*
D48*
Y81417D02*
D03*
D49*
X246850Y100827D02*
D03*
Y85827D02*
D03*
Y18484D02*
D03*
Y33484D02*
D03*
Y51949D02*
D03*
Y66949D02*
D03*
D50*
X47854Y16248D02*
D03*
X32854D02*
D03*
D51*
X181496Y56693D02*
D03*
X72835Y55118D02*
D03*
X51181Y54134D02*
D03*
X104331Y66929D02*
D03*
X214567Y22638D02*
D03*
X202756Y98425D02*
D03*
X76772Y79724D02*
D03*
Y71850D02*
D03*
X81693D02*
D03*
Y79724D02*
D03*
X79134Y75590D02*
D03*
X68898Y89567D02*
D03*
X66535Y60630D02*
D03*
X48425Y60236D02*
D03*
D52*
X133858Y69882D02*
D03*
X58071Y97441D02*
D03*
M02*
