G04*
G04 #@! TF.GenerationSoftware,Altium Limited,Altium Designer,22.10.1 (41)*
G04*
G04 Layer_Color=16711935*
%FSLAX25Y25*%
%MOIN*%
G70*
G04*
G04 #@! TF.SameCoordinates,9E0960FC-3ED2-4FAA-BC68-AFD81F8D810D*
G04*
G04*
G04 #@! TF.FilePolarity,Negative*
G04*
G01*
G75*
%ADD36C,0.06800*%
%ADD37R,0.06800X0.06800*%
G04:AMPARAMS|DCode=38|XSize=86.74mil|YSize=126.11mil|CornerRadius=23.68mil|HoleSize=0mil|Usage=FLASHONLY|Rotation=90.000|XOffset=0mil|YOffset=0mil|HoleType=Round|Shape=RoundedRectangle|*
%AMROUNDEDRECTD38*
21,1,0.08674,0.07874,0,0,90.0*
21,1,0.03937,0.12611,0,0,90.0*
1,1,0.04737,0.03937,0.01968*
1,1,0.04737,0.03937,-0.01968*
1,1,0.04737,-0.03937,-0.01968*
1,1,0.04737,-0.03937,0.01968*
%
%ADD38ROUNDEDRECTD38*%
G04:AMPARAMS|DCode=39|XSize=86.74mil|YSize=126.11mil|CornerRadius=23.68mil|HoleSize=0mil|Usage=FLASHONLY|Rotation=0.000|XOffset=0mil|YOffset=0mil|HoleType=Round|Shape=RoundedRectangle|*
%AMROUNDEDRECTD39*
21,1,0.08674,0.07874,0,0,0.0*
21,1,0.03937,0.12611,0,0,0.0*
1,1,0.04737,0.01968,-0.03937*
1,1,0.04737,-0.01968,-0.03937*
1,1,0.04737,-0.01968,0.03937*
1,1,0.04737,0.01968,0.03937*
%
%ADD39ROUNDEDRECTD39*%
%ADD40C,0.03556*%
%ADD41C,0.05918*%
D36*
X24803Y61417D02*
D03*
D37*
Y81417D02*
D03*
D38*
X246850Y100827D02*
D03*
Y85827D02*
D03*
Y18484D02*
D03*
Y33484D02*
D03*
Y51949D02*
D03*
Y66949D02*
D03*
D39*
X47854Y16248D02*
D03*
X32854D02*
D03*
D40*
X181496Y56693D02*
D03*
X72835Y55118D02*
D03*
X51181Y54134D02*
D03*
X104331Y66929D02*
D03*
X214567Y22638D02*
D03*
X202756Y98425D02*
D03*
X76772Y79724D02*
D03*
Y71850D02*
D03*
X81693D02*
D03*
Y79724D02*
D03*
X79134Y75590D02*
D03*
X68898Y89567D02*
D03*
X66535Y60630D02*
D03*
X48425Y60236D02*
D03*
D41*
X133858Y69882D02*
D03*
X58071Y97441D02*
D03*
M02*
