G04*
G04 #@! TF.GenerationSoftware,Altium Limited,Altium Designer,22.10.1 (41)*
G04*
G04 Layer_Color=65535*
%FSLAX25Y25*%
%MOIN*%
G70*
G04*
G04 #@! TF.SameCoordinates,9E0960FC-3ED2-4FAA-BC68-AFD81F8D810D*
G04*
G04*
G04 #@! TF.FilePolarity,Positive*
G04*
G01*
G75*
%ADD10C,0.01000*%
%ADD11C,0.00500*%
%ADD12C,0.00984*%
%ADD13C,0.00394*%
%ADD14C,0.00787*%
%ADD15C,0.00709*%
D10*
X42803Y71917D02*
G03*
X42803Y71917I-18000J0D01*
G01*
X32303Y79917D02*
Y81917D01*
X31303Y80917D02*
X33303D01*
X218504Y37402D02*
X218504D01*
X219291Y38189D01*
Y60039D01*
Y60335D01*
X218406Y61221D02*
X219291Y60335D01*
X194095Y38091D02*
X194980Y37205D01*
X194095Y38091D02*
Y38386D01*
Y60236D01*
X194882Y61024D01*
X194882D01*
X231102Y108327D02*
X246850D01*
X262598D01*
X231102Y78327D02*
X246850D01*
X262598D01*
X246850Y93327D02*
X262205D01*
X231102D02*
X246850D01*
X258661Y78366D02*
Y108287D01*
X231102Y78327D02*
Y108327D01*
X262598Y78327D02*
Y108327D01*
X55354Y16248D02*
Y31996D01*
Y500D02*
Y16248D01*
X25354D02*
Y31996D01*
Y500D02*
Y16248D01*
X40354Y894D02*
Y16248D01*
Y31996D01*
X25394Y4437D02*
X55315D01*
X25354Y31996D02*
X55354D01*
X25354Y500D02*
X55354D01*
X262598Y10984D02*
Y40984D01*
X231102Y10984D02*
Y40984D01*
X258661Y11024D02*
Y40945D01*
X231102Y25984D02*
X246850D01*
X262205D01*
X246850Y10984D02*
X262598D01*
X231102D02*
X246850D01*
Y40984D02*
X262598D01*
X231102D02*
X246850D01*
X262598Y44449D02*
Y74449D01*
X231102Y44449D02*
Y74449D01*
X258661Y44488D02*
Y74410D01*
X231102Y59449D02*
X246850D01*
X262205D01*
X246850Y44449D02*
X262598D01*
X231102D02*
X246850D01*
Y74449D02*
X262598D01*
X231102D02*
X246850D01*
D11*
X112711Y81102D02*
G03*
X112711Y81102I-1392J0D01*
G01*
D12*
X68898Y86535D02*
G03*
X68898Y86535I-492J0D01*
G01*
D13*
X186783Y63967D02*
X190483D01*
Y65167D01*
X186783D02*
X190483D01*
X186783Y63967D02*
Y65167D01*
X185827Y59449D02*
Y69685D01*
X191339D01*
Y59449D02*
Y69685D01*
X185827Y59449D02*
X191339D01*
X178740Y59055D02*
X184252D01*
Y70079D01*
X178740D02*
X184252D01*
X178740Y59055D02*
Y70079D01*
X179796Y65167D02*
X183196D01*
X179796Y63967D02*
X183196D01*
X171653Y59055D02*
X177165D01*
Y70079D01*
X171653D02*
X177165D01*
X171653Y59055D02*
Y70079D01*
X172709Y65167D02*
X176109D01*
X172709Y63967D02*
X176109D01*
X212867Y29912D02*
X216267D01*
X212867Y31112D02*
X216267D01*
X211811Y25000D02*
Y36024D01*
X217323D01*
Y25000D02*
Y36024D01*
X211811Y25000D02*
X217323D01*
X187402Y90158D02*
X192913D01*
Y100394D01*
X187402D02*
X192913D01*
X187402Y90158D02*
Y100394D01*
X188357Y94676D02*
Y95876D01*
X192058D01*
Y94676D02*
Y95876D01*
X188357Y94676D02*
X192058D01*
X92520Y57874D02*
Y63386D01*
X82284D02*
X92520D01*
X82284Y57874D02*
Y63386D01*
Y57874D02*
X92520D01*
X86802Y58830D02*
X88002D01*
X86802D02*
Y62530D01*
X88002D01*
Y58830D02*
Y62530D01*
X178937Y49213D02*
Y54724D01*
X168701D02*
X178937D01*
X168701Y49213D02*
Y54724D01*
Y49213D02*
X178937D01*
X173219Y50169D02*
X174419D01*
X173219D02*
Y53869D01*
X174419D01*
Y50169D02*
Y53869D01*
X100581Y77040D02*
Y80440D01*
X101781Y77040D02*
Y80440D01*
X95669Y81496D02*
X106693D01*
Y75984D02*
Y81496D01*
X95669Y75984D02*
X106693D01*
X95669D02*
Y81496D01*
X101781Y70347D02*
Y73747D01*
X100581Y70347D02*
Y73747D01*
X95669Y69291D02*
X106693D01*
X95669D02*
Y74803D01*
X106693D01*
Y69291D02*
Y74803D01*
X70473Y57874D02*
Y63386D01*
Y57874D02*
X80709D01*
Y63386D01*
X70473D02*
X80709D01*
X74991Y62430D02*
X76191D01*
Y58730D02*
Y62430D01*
X74991Y58730D02*
X76191D01*
X74991D02*
Y62430D01*
X53543Y51575D02*
X59055D01*
Y61811D01*
X53543D02*
X59055D01*
X53543Y51575D02*
Y61811D01*
X54499Y56093D02*
Y57293D01*
X58199D01*
Y56093D02*
Y57293D01*
X54499Y56093D02*
X58199D01*
X53543Y62992D02*
X59055D01*
Y73228D01*
X53543D02*
X59055D01*
X53543Y62992D02*
Y73228D01*
X54499Y67510D02*
Y68710D01*
X58199D01*
Y67510D02*
Y68710D01*
X54499Y67510D02*
X58199D01*
X45669Y62992D02*
X51181D01*
Y73228D01*
X45669D02*
X51181D01*
X45669Y62992D02*
Y73228D01*
X46625Y67510D02*
Y68710D01*
X50325D01*
Y67510D02*
Y68710D01*
X46625Y67510D02*
X50325D01*
X195150Y95069D02*
X198550D01*
X195150Y96269D02*
X198550D01*
X194095Y90158D02*
Y101181D01*
X199606D01*
Y90158D02*
Y101181D01*
X194095Y90158D02*
X199606D01*
X185030Y50269D02*
Y53668D01*
X186230Y50269D02*
Y53668D01*
X180118Y54724D02*
X191142D01*
Y49213D02*
Y54724D01*
X180118Y49213D02*
X191142D01*
X180118D02*
Y54724D01*
D14*
X116240Y87008D02*
Y99803D01*
Y50591D02*
Y63386D01*
Y50591D02*
X165453D01*
Y63386D01*
Y87008D02*
Y99803D01*
X116240D02*
X165453D01*
X170473Y80118D02*
Y99803D01*
X185433Y80118D02*
Y99803D01*
X183465Y80118D02*
X185433D01*
X177795Y87047D02*
Y89016D01*
X176811Y88032D02*
X178779D01*
X170473Y80118D02*
X172441D01*
X170473Y99803D02*
X172441D01*
X183465D02*
X185433D01*
X170473Y92520D02*
X185433D01*
X72835Y65748D02*
X85433D01*
X72835Y85433D02*
X85433D01*
X53347Y75098D02*
X62402D01*
X53347Y93405D02*
X62402D01*
Y75098D02*
Y93405D01*
X53347Y75098D02*
Y93405D01*
X54874Y83252D02*
X60874D01*
X54874Y85252D02*
X60874D01*
X8268Y34252D02*
X23228D01*
X21260Y41535D02*
X23228D01*
X8268D02*
X10236D01*
X8268Y21850D02*
X10236D01*
X14606Y29764D02*
X16575D01*
X15590Y28780D02*
Y30748D01*
X21260Y21850D02*
X23228D01*
Y41535D01*
X8268Y21850D02*
Y41535D01*
D15*
X102054Y22627D02*
X100217D01*
Y21249D01*
X101136Y21709D01*
X101595D01*
X102054Y21249D01*
Y20331D01*
X101595Y19872D01*
X100677D01*
X100217Y20331D01*
X102972Y22627D02*
Y20790D01*
X103891Y19872D01*
X104809Y20790D01*
Y22627D01*
X109860Y19872D02*
X108942D01*
X108482Y20331D01*
Y21249D01*
X108942Y21709D01*
X109860D01*
X110319Y21249D01*
Y20790D01*
X108482D01*
X111237Y21709D02*
X113074Y19872D01*
X112156Y20790D01*
X113074Y21709D01*
X111237Y19872D01*
X114452Y22168D02*
Y21709D01*
X113992D01*
X114911D01*
X114452D01*
Y20331D01*
X114911Y19872D01*
X117666D02*
X116747D01*
X116288Y20331D01*
Y21249D01*
X116747Y21709D01*
X117666D01*
X118125Y21249D01*
Y20790D01*
X116288D01*
X119043Y21709D02*
Y19872D01*
Y20790D01*
X119502Y21249D01*
X119962Y21709D01*
X120421D01*
X121798Y19872D02*
Y21709D01*
X123176D01*
X123635Y21249D01*
Y19872D01*
X125013Y21709D02*
X125931D01*
X126390Y21249D01*
Y19872D01*
X125013D01*
X124553Y20331D01*
X125013Y20790D01*
X126390D01*
X127308Y19872D02*
X128227D01*
X127768D01*
Y22627D01*
X127308D01*
X80014Y28532D02*
X79096D01*
X78636Y28073D01*
Y26237D01*
X79096Y25777D01*
X80014D01*
X80473Y26237D01*
Y28073D01*
X80014Y28532D01*
X81391D02*
Y26237D01*
X81850Y25777D01*
X82769D01*
X83228Y26237D01*
Y28532D01*
X84146D02*
X85983D01*
X85065D01*
Y25777D01*
X86901D02*
Y28532D01*
X88279D01*
X88738Y28073D01*
Y27155D01*
X88279Y26696D01*
X86901D01*
X89656Y28532D02*
Y26237D01*
X90116Y25777D01*
X91034D01*
X91493Y26237D01*
Y28532D01*
X92411D02*
X94248D01*
X93330D01*
Y25777D01*
X95166Y27614D02*
X95626D01*
Y27155D01*
X95166D01*
Y27614D01*
Y26237D02*
X95626D01*
Y25777D01*
X95166D01*
Y26237D01*
X102054Y28532D02*
X100217D01*
Y27155D01*
X101136Y27614D01*
X101595D01*
X102054Y27155D01*
Y26237D01*
X101595Y25777D01*
X100677D01*
X100217Y26237D01*
X102972Y28532D02*
Y26696D01*
X103891Y25777D01*
X104809Y26696D01*
Y28532D01*
X108482Y25777D02*
X109401D01*
X108942D01*
Y27614D01*
X108482D01*
X110778Y25777D02*
X112156D01*
X112615Y26237D01*
X112156Y26696D01*
X111237D01*
X110778Y27155D01*
X111237Y27614D01*
X112615D01*
X113992Y25777D02*
X114911D01*
X115370Y26237D01*
Y27155D01*
X114911Y27614D01*
X113992D01*
X113533Y27155D01*
Y26237D01*
X113992Y25777D01*
X116288D02*
X117207D01*
X116747D01*
Y28532D01*
X116288D01*
X119043Y27614D02*
X119962D01*
X120421Y27155D01*
Y25777D01*
X119043D01*
X118584Y26237D01*
X119043Y26696D01*
X120421D01*
X121798Y28073D02*
Y27614D01*
X121339D01*
X122257D01*
X121798D01*
Y26237D01*
X122257Y25777D01*
X125013D02*
X124094D01*
X123635Y26237D01*
Y27155D01*
X124094Y27614D01*
X125013D01*
X125472Y27155D01*
Y26696D01*
X123635D01*
X128227Y28532D02*
Y25777D01*
X126849D01*
X126390Y26237D01*
Y27155D01*
X126849Y27614D01*
X128227D01*
X78637Y35160D02*
X79555D01*
X79096D01*
Y32405D01*
X78637D01*
X79555D01*
X80933D02*
Y35160D01*
X82770Y32405D01*
Y35160D01*
X83688Y32405D02*
Y35160D01*
X85065D01*
X85525Y34700D01*
Y33782D01*
X85065Y33323D01*
X83688D01*
X86443Y35160D02*
Y32864D01*
X86902Y32405D01*
X87821D01*
X88280Y32864D01*
Y35160D01*
X89198D02*
X91035D01*
X90116D01*
Y32405D01*
X91953Y34241D02*
X92412D01*
Y33782D01*
X91953D01*
Y34241D01*
Y32864D02*
X92412D01*
Y32405D01*
X91953D01*
Y32864D01*
X98840Y32405D02*
X97004D01*
X98840Y34241D01*
Y34700D01*
X98381Y35160D01*
X97463D01*
X97004Y34700D01*
X99759D02*
X100218Y35160D01*
X101136D01*
X101596Y34700D01*
Y32864D01*
X101136Y32405D01*
X100218D01*
X99759Y32864D01*
Y34700D01*
X102514Y33782D02*
X104351D01*
X105269Y35160D02*
X107106D01*
Y34700D01*
X105269Y32864D01*
Y32405D01*
X108024Y34700D02*
X108483Y35160D01*
X109401D01*
X109861Y34700D01*
Y32864D01*
X109401Y32405D01*
X108483D01*
X108024Y32864D01*
Y34700D01*
X110779Y35160D02*
Y33323D01*
X111697Y32405D01*
X112616Y33323D01*
Y35160D01*
X222520Y18032D02*
X220683D01*
X219765Y18950D01*
X220683Y19868D01*
X222520D01*
X221142D01*
Y18032D01*
X222520Y20786D02*
X219765D01*
X222520Y22623D01*
X219765D01*
X222520Y23541D02*
X220683D01*
X219765Y24460D01*
X220683Y25378D01*
X222520D01*
X221142D01*
Y23541D01*
X219765Y26297D02*
X222520D01*
Y28133D01*
X219765Y30429D02*
Y29511D01*
X220224Y29052D01*
X222060D01*
X222520Y29511D01*
Y30429D01*
X222060Y30888D01*
X220224D01*
X219765Y30429D01*
X220224Y33643D02*
X219765Y33184D01*
Y32266D01*
X220224Y31807D01*
X222060D01*
X222520Y32266D01*
Y33184D01*
X222060Y33643D01*
X221142D01*
Y32725D01*
X219765Y81811D02*
Y82729D01*
Y82270D01*
X222520D01*
Y81811D01*
Y82729D01*
X220224Y85944D02*
X219765Y85484D01*
Y84566D01*
X220224Y84107D01*
X220683D01*
X221142Y84566D01*
Y85484D01*
X221601Y85944D01*
X222060D01*
X222520Y85484D01*
Y84566D01*
X222060Y84107D01*
X219765Y88239D02*
Y87321D01*
X220224Y86862D01*
X222060D01*
X222520Y87321D01*
Y88239D01*
X222060Y88699D01*
X220224D01*
X219765Y88239D01*
Y89617D02*
X222520D01*
Y91454D01*
Y92372D02*
X220683D01*
X219765Y93290D01*
X220683Y94209D01*
X222520D01*
X221142D01*
Y92372D01*
X219765Y95127D02*
Y96964D01*
Y96045D01*
X222520D01*
X219765Y99719D02*
Y97882D01*
X222520D01*
Y99719D01*
X221142Y97882D02*
Y98800D01*
X219765Y100637D02*
X222520D01*
Y102015D01*
X222060Y102474D01*
X220224D01*
X219765Y102015D01*
Y100637D01*
X226129Y50183D02*
X225670Y49724D01*
Y48806D01*
X226129Y48346D01*
X227966D01*
X228425Y48806D01*
Y49724D01*
X227966Y50183D01*
X227048D01*
Y49265D01*
X228425Y51101D02*
X225670D01*
X228425Y52938D01*
X225670D01*
Y53856D02*
X228425D01*
Y55234D01*
X227966Y55693D01*
X226129D01*
X225670Y55234D01*
Y53856D01*
Y32467D02*
Y30630D01*
X227048D01*
X226589Y31548D01*
Y32007D01*
X227048Y32467D01*
X227966D01*
X228425Y32007D01*
Y31089D01*
X227966Y30630D01*
X225670Y33385D02*
X227507D01*
X228425Y34303D01*
X227507Y35222D01*
X225670D01*
X226129Y83648D02*
X225670Y83188D01*
Y82270D01*
X226129Y81811D01*
X227966D01*
X228425Y82270D01*
Y83188D01*
X227966Y83648D01*
X227048D01*
Y82729D01*
X228425Y84566D02*
X225670D01*
X228425Y86403D01*
X225670D01*
Y87321D02*
X228425D01*
Y88699D01*
X227966Y89158D01*
X226129D01*
X225670Y88699D01*
Y87321D01*
X225670Y99789D02*
Y97953D01*
X227048D01*
X226589Y98871D01*
Y99330D01*
X227048Y99789D01*
X227966D01*
X228425Y99330D01*
Y98412D01*
X227966Y97953D01*
X225670Y100708D02*
X227507D01*
X228425Y101626D01*
X227507Y102544D01*
X225670D01*
X226129Y17112D02*
X225670Y16653D01*
Y15735D01*
X226129Y15276D01*
X227966D01*
X228425Y15735D01*
Y16653D01*
X227966Y17112D01*
X227048D01*
Y16194D01*
X228425Y18031D02*
X225670D01*
X228425Y19867D01*
X225670D01*
Y20786D02*
X228425D01*
Y22163D01*
X227966Y22622D01*
X226129D01*
X225670Y22163D01*
Y20786D01*
Y65931D02*
Y64095D01*
X227048D01*
X226589Y65013D01*
Y65472D01*
X227048Y65931D01*
X227966D01*
X228425Y65472D01*
Y64554D01*
X227966Y64095D01*
X225670Y66849D02*
X227507D01*
X228425Y67768D01*
X227507Y68686D01*
X225670D01*
X45000Y36928D02*
Y34173D01*
X46378D01*
X46837Y34632D01*
Y36469D01*
X46378Y36928D01*
X45000D01*
X49592Y36469D02*
X49132Y36928D01*
X48214D01*
X47755Y36469D01*
Y34632D01*
X48214Y34173D01*
X49132D01*
X49592Y34632D01*
X50510Y35551D02*
X52347D01*
X30236Y36928D02*
Y34173D01*
X31614D01*
X32073Y34632D01*
Y36469D01*
X31614Y36928D01*
X30236D01*
X34828Y36469D02*
X34369Y36928D01*
X33450D01*
X32991Y36469D01*
Y34632D01*
X33450Y34173D01*
X34369D01*
X34828Y34632D01*
X35746Y35551D02*
X37583D01*
X36665Y36469D02*
Y34632D01*
X233925Y8267D02*
X235761Y5512D01*
Y8267D02*
X233925Y5512D01*
X238057D02*
Y8267D01*
X236680Y6890D01*
X238516D01*
X204397Y66830D02*
Y64075D01*
X206234D01*
X208989D02*
X207152D01*
X208989Y65912D01*
Y66371D01*
X208530Y66830D01*
X207611D01*
X207152Y66371D01*
X207743Y30053D02*
X207284Y29594D01*
Y28675D01*
X207743Y28216D01*
X209580D01*
X210039Y28675D01*
Y29594D01*
X209580Y30053D01*
X207284Y30971D02*
Y32808D01*
X207743D01*
X209580Y30971D01*
X210039D01*
X220079Y66602D02*
X222834Y68439D01*
X220079D02*
X222834Y66602D01*
X220538Y69357D02*
X220079Y69816D01*
Y70734D01*
X220538Y71193D01*
X220998D01*
X221457Y70734D01*
Y70275D01*
Y70734D01*
X221916Y71193D01*
X222375D01*
X222834Y70734D01*
Y69816D01*
X222375Y69357D01*
X231562Y112795D02*
X233399Y110040D01*
Y112795D02*
X231562Y110040D01*
X236154D02*
X234317D01*
X236154Y111876D01*
Y112336D01*
X235695Y112795D01*
X234777D01*
X234317Y112336D01*
X57415Y30511D02*
X59252Y27756D01*
Y30511D02*
X57415Y27756D01*
X60170D02*
X61089D01*
X60629D01*
Y30511D01*
X60170Y30052D01*
X77297Y91141D02*
Y88845D01*
X77756Y88386D01*
X78675D01*
X79134Y88845D01*
Y91141D01*
X80052Y88386D02*
X80971D01*
X80511D01*
Y91141D01*
X80052Y90682D01*
X63188Y54791D02*
X60434D01*
Y56168D01*
X60893Y56627D01*
X61811D01*
X62270Y56168D01*
Y54791D01*
Y55709D02*
X63188Y56627D01*
X60893Y57546D02*
X60434Y58005D01*
Y58923D01*
X60893Y59382D01*
X61352D01*
X61811Y58923D01*
X62270Y59382D01*
X62729D01*
X63188Y58923D01*
Y58005D01*
X62729Y57546D01*
X62270D01*
X61811Y58005D01*
X61352Y57546D01*
X60893D01*
X61811Y58005D02*
Y58923D01*
X75657Y53741D02*
Y56496D01*
X77034D01*
X77494Y56037D01*
Y55118D01*
X77034Y54659D01*
X75657D01*
X76575D02*
X77494Y53741D01*
X80249Y56496D02*
X79330Y56037D01*
X78412Y55118D01*
Y54200D01*
X78871Y53741D01*
X79789D01*
X80249Y54200D01*
Y54659D01*
X79789Y55118D01*
X78412D01*
X49803Y74870D02*
X47048D01*
Y76247D01*
X47507Y76706D01*
X48425D01*
X48884Y76247D01*
Y74870D01*
Y75788D02*
X49803Y76706D01*
X47048Y77624D02*
Y79461D01*
X47507D01*
X49343Y77624D01*
X49803D01*
X94161Y59252D02*
Y62007D01*
X95538D01*
X95998Y61548D01*
Y60630D01*
X95538Y60171D01*
X94161D01*
X95079D02*
X95998Y59252D01*
X98752Y62007D02*
X96916D01*
Y60630D01*
X97834Y61089D01*
X98293D01*
X98752Y60630D01*
Y59712D01*
X98293Y59252D01*
X97375D01*
X96916Y59712D01*
X63188Y65814D02*
X60434D01*
Y67192D01*
X60893Y67651D01*
X61811D01*
X62270Y67192D01*
Y65814D01*
Y66733D02*
X63188Y67651D01*
Y69947D02*
X60434D01*
X61811Y68569D01*
Y70406D01*
X186188Y72048D02*
Y74803D01*
X187566D01*
X188025Y74344D01*
Y73425D01*
X187566Y72966D01*
X186188D01*
X187107D02*
X188025Y72048D01*
X188943Y74344D02*
X189403Y74803D01*
X190321D01*
X190780Y74344D01*
Y73884D01*
X190321Y73425D01*
X189862D01*
X190321D01*
X190780Y72966D01*
Y72507D01*
X190321Y72048D01*
X189403D01*
X188943Y72507D01*
X171523Y44686D02*
Y47440D01*
X172901D01*
X173360Y46981D01*
Y46063D01*
X172901Y45604D01*
X171523D01*
X172441D02*
X173360Y44686D01*
X176115D02*
X174278D01*
X176115Y46522D01*
Y46981D01*
X175656Y47440D01*
X174737D01*
X174278Y46981D01*
X188321Y104528D02*
Y107283D01*
X189698D01*
X190157Y106824D01*
Y105905D01*
X189698Y105446D01*
X188321D01*
X189239D02*
X190157Y104528D01*
X191076D02*
X191994D01*
X191535D01*
Y107283D01*
X191076Y106824D01*
X117455Y106496D02*
Y103741D01*
X119291D01*
X120210D02*
X121128D01*
X120669D01*
Y106496D01*
X120210Y106036D01*
X175657Y107283D02*
Y104528D01*
X177034D01*
X177494Y104987D01*
Y106824D01*
X177034Y107283D01*
X175657D01*
X180249Y104528D02*
X178412D01*
X180249Y106365D01*
Y106824D01*
X179789Y107283D01*
X178871D01*
X178412Y106824D01*
X13518Y49015D02*
Y46260D01*
X14895D01*
X15354Y46720D01*
Y48556D01*
X14895Y49015D01*
X13518D01*
X16273Y46260D02*
X17191D01*
X16732D01*
Y49015D01*
X16273Y48556D01*
X185171Y46981D02*
X184712Y47440D01*
X183793D01*
X183334Y46981D01*
Y45145D01*
X183793Y44686D01*
X184712D01*
X185171Y45145D01*
X186089D02*
X186548Y44686D01*
X187467D01*
X187926Y45145D01*
Y46981D01*
X187467Y47440D01*
X186548D01*
X186089Y46981D01*
Y46522D01*
X186548Y46063D01*
X187926D01*
X97966Y66863D02*
X97507Y67322D01*
X96588D01*
X96129Y66863D01*
Y65026D01*
X96588Y64567D01*
X97507D01*
X97966Y65026D01*
X98884Y66863D02*
X99344Y67322D01*
X100262D01*
X100721Y66863D01*
Y66404D01*
X100262Y65945D01*
X100721Y65486D01*
Y65026D01*
X100262Y64567D01*
X99344D01*
X98884Y65026D01*
Y65486D01*
X99344Y65945D01*
X98884Y66404D01*
Y66863D01*
X99344Y65945D02*
X100262D01*
X99935Y85170D02*
X99475Y85629D01*
X98557D01*
X98098Y85170D01*
Y83334D01*
X98557Y82875D01*
X99475D01*
X99935Y83334D01*
X102690Y82875D02*
X100853D01*
X102690Y84711D01*
Y85170D01*
X102230Y85629D01*
X101312D01*
X100853Y85170D01*
X47507Y84580D02*
X47048Y84121D01*
Y83203D01*
X47507Y82744D01*
X49343D01*
X49803Y83203D01*
Y84121D01*
X49343Y84580D01*
X47048Y87335D02*
X47507Y86417D01*
X48425Y85498D01*
X49343D01*
X49803Y85958D01*
Y86876D01*
X49343Y87335D01*
X48884D01*
X48425Y86876D01*
Y85498D01*
X24246Y94816D02*
X23786Y95275D01*
X22868D01*
X22409Y94816D01*
Y92979D01*
X22868Y92520D01*
X23786D01*
X24246Y92979D01*
X27001Y95275D02*
X25164D01*
Y93898D01*
X26082Y94357D01*
X26541D01*
X27001Y93898D01*
Y92979D01*
X26541Y92520D01*
X25623D01*
X25164Y92979D01*
X173852Y74344D02*
X173393Y74803D01*
X172474D01*
X172015Y74344D01*
Y72507D01*
X172474Y72048D01*
X173393D01*
X173852Y72507D01*
X176148Y72048D02*
Y74803D01*
X174770Y73425D01*
X176607D01*
X180938Y74344D02*
X180479Y74803D01*
X179561D01*
X179102Y74344D01*
Y72507D01*
X179561Y72048D01*
X180479D01*
X180938Y72507D01*
X181857Y74344D02*
X182316Y74803D01*
X183234D01*
X183694Y74344D01*
Y73884D01*
X183234Y73425D01*
X182775D01*
X183234D01*
X183694Y72966D01*
Y72507D01*
X183234Y72048D01*
X182316D01*
X181857Y72507D01*
X196850Y106824D02*
X196391Y107283D01*
X195473D01*
X195014Y106824D01*
Y104987D01*
X195473Y104528D01*
X196391D01*
X196850Y104987D01*
X197769Y104528D02*
X198687D01*
X198228D01*
Y107283D01*
X197769Y106824D01*
M02*
