M48
;Layer_Color=9474304
;FILE_FORMAT=2:5
INCH,LZ
;TYPE=PLATED
T1F00S00C0.01181
T2F00S00C0.02756
T3F00S00C0.03500
T4F00S00C0.03937
%
T01
X0051181Y0054134
X0048425Y0060236
X0066535Y006063
X0072835Y0055118
X0076772Y007185
X0081693
X0079134Y007559
X0076772Y0079724
X0081693
X0068898Y0089567
X0104331Y0066929
X0181496Y0056693
X0202756Y0098425
X0214567Y0022638
T02
X0058071Y0097441
X0133858Y0069882
T03
X0024803Y0061417
Y0081417
T04
X0032854Y0016248
X0047854
X024685Y0018484
Y0033484
Y0051949
Y0066949
Y0085827
Y0100827
M30
