G04*
G04 #@! TF.GenerationSoftware,Altium Limited,Altium Designer,22.10.1 (41)*
G04*
G04 Layer_Color=8388736*
%FSLAX25Y25*%
%MOIN*%
G70*
G04*
G04 #@! TF.SameCoordinates,9E0960FC-3ED2-4FAA-BC68-AFD81F8D810D*
G04*
G04*
G04 #@! TF.FilePolarity,Negative*
G04*
G01*
G75*
%ADD26R,0.04343X0.03162*%
%ADD27R,0.03950X0.03950*%
G04:AMPARAMS|DCode=28|XSize=224.53mil|YSize=92.65mil|CornerRadius=25.16mil|HoleSize=0mil|Usage=FLASHONLY|Rotation=180.000|XOffset=0mil|YOffset=0mil|HoleType=Round|Shape=RoundedRectangle|*
%AMROUNDEDRECTD28*
21,1,0.22453,0.04232,0,0,180.0*
21,1,0.17421,0.09265,0,0,180.0*
1,1,0.05032,-0.08711,0.02116*
1,1,0.05032,0.08711,0.02116*
1,1,0.05032,0.08711,-0.02116*
1,1,0.05032,-0.08711,-0.02116*
%
%ADD28ROUNDEDRECTD28*%
%ADD29R,0.15958X0.10642*%
%ADD30R,0.09461X0.09461*%
%ADD31R,0.10642X0.14580*%
G04:AMPARAMS|DCode=32|XSize=33.59mil|YSize=65.09mil|CornerRadius=10.4mil|HoleSize=0mil|Usage=FLASHONLY|Rotation=90.000|XOffset=0mil|YOffset=0mil|HoleType=Round|Shape=RoundedRectangle|*
%AMROUNDEDRECTD32*
21,1,0.03359,0.04429,0,0,90.0*
21,1,0.01280,0.06509,0,0,90.0*
1,1,0.02080,0.02215,0.00640*
1,1,0.02080,0.02215,-0.00640*
1,1,0.02080,-0.02215,-0.00640*
1,1,0.02080,-0.02215,0.00640*
%
%ADD32ROUNDEDRECTD32*%
%ADD33R,0.03162X0.04343*%
%ADD34R,0.07887X0.05328*%
%ADD35R,0.03950X0.03950*%
%ADD36C,0.06800*%
%ADD37R,0.06800X0.06800*%
G04:AMPARAMS|DCode=38|XSize=86.74mil|YSize=126.11mil|CornerRadius=23.68mil|HoleSize=0mil|Usage=FLASHONLY|Rotation=90.000|XOffset=0mil|YOffset=0mil|HoleType=Round|Shape=RoundedRectangle|*
%AMROUNDEDRECTD38*
21,1,0.08674,0.07874,0,0,90.0*
21,1,0.03937,0.12611,0,0,90.0*
1,1,0.04737,0.03937,0.01968*
1,1,0.04737,0.03937,-0.01968*
1,1,0.04737,-0.03937,-0.01968*
1,1,0.04737,-0.03937,0.01968*
%
%ADD38ROUNDEDRECTD38*%
G04:AMPARAMS|DCode=39|XSize=86.74mil|YSize=126.11mil|CornerRadius=23.68mil|HoleSize=0mil|Usage=FLASHONLY|Rotation=0.000|XOffset=0mil|YOffset=0mil|HoleType=Round|Shape=RoundedRectangle|*
%AMROUNDEDRECTD39*
21,1,0.08674,0.07874,0,0,0.0*
21,1,0.03937,0.12611,0,0,0.0*
1,1,0.04737,0.01968,-0.03937*
1,1,0.04737,-0.01968,-0.03937*
1,1,0.04737,-0.01968,0.03937*
1,1,0.04737,0.01968,0.03937*
%
%ADD39ROUNDEDRECTD39*%
%ADD40C,0.03556*%
%ADD41C,0.05918*%
D26*
X188583Y61614D02*
D03*
Y67520D02*
D03*
X190157Y98228D02*
D03*
Y92323D02*
D03*
X56299Y59646D02*
D03*
Y53740D02*
D03*
Y71063D02*
D03*
Y65158D02*
D03*
X48425Y71063D02*
D03*
Y65158D02*
D03*
D27*
X181496Y67520D02*
D03*
Y61614D02*
D03*
X174409Y67520D02*
D03*
Y61614D02*
D03*
X214567Y27559D02*
D03*
Y33465D02*
D03*
X196850Y92716D02*
D03*
Y98622D02*
D03*
D28*
X206693Y41634D02*
D03*
Y56791D02*
D03*
D29*
X160433Y81102D02*
D03*
Y69291D02*
D03*
X121260D02*
D03*
Y81102D02*
D03*
D30*
X177953D02*
D03*
Y98425D02*
D03*
X15748Y40157D02*
D03*
Y22835D02*
D03*
D31*
X79134Y75590D02*
D03*
D32*
X89862Y68090D02*
D03*
Y73090D02*
D03*
Y78091D02*
D03*
Y83091D02*
D03*
X68405Y68090D02*
D03*
Y73090D02*
D03*
Y78091D02*
D03*
Y83091D02*
D03*
D33*
X84449Y60630D02*
D03*
X90354D02*
D03*
X170866Y51968D02*
D03*
X176772D02*
D03*
X78543Y60630D02*
D03*
X72638D02*
D03*
D34*
X57874Y90158D02*
D03*
Y78347D02*
D03*
D35*
X98228Y78740D02*
D03*
X104134D02*
D03*
Y72047D02*
D03*
X98228D02*
D03*
X182677Y51968D02*
D03*
X188583D02*
D03*
D36*
X24803Y61417D02*
D03*
D37*
Y81417D02*
D03*
D38*
X246850Y100827D02*
D03*
Y85827D02*
D03*
Y18484D02*
D03*
Y33484D02*
D03*
Y51949D02*
D03*
Y66949D02*
D03*
D39*
X47854Y16248D02*
D03*
X32854D02*
D03*
D40*
X181496Y56693D02*
D03*
X72835Y55118D02*
D03*
X51181Y54134D02*
D03*
X104331Y66929D02*
D03*
X214567Y22638D02*
D03*
X202756Y98425D02*
D03*
X76772Y79724D02*
D03*
Y71850D02*
D03*
X81693D02*
D03*
Y79724D02*
D03*
X79134Y75590D02*
D03*
X68898Y89567D02*
D03*
X66535Y60630D02*
D03*
X48425Y60236D02*
D03*
D41*
X133858Y69882D02*
D03*
X58071Y97441D02*
D03*
M02*
